PathFileType	4	(X/Y/Z)	/Users/visionmauri/Downloads/Videos/OAW03-top_Sports2D/OAW03-top_Sports2D_m_person00.trc
DataRate	CameraRate	NumFrames	NumMarkers	Units	OrigDataRate	OrigDataStartFrame	OrigNumFrames
30.0	30.0	10	22	m	30.0	268	2146
Frame#	Time	Hip			RHip			RKnee			RAnkle			RBigToe			RSmallToe			RHeel			LHip			LKnee			LAnkle			LBigToe			LSmallToe			LHeel			Neck			Head			Nose			RShoulder			RElbow			RWrist			LShoulder			LElbow			LWrist			
		X1	Y1	Z1	X2	Y2	Z2	X3	Y3	Z3	X4	Y4	Z4	X5	Y5	Z5	X6	Y6	Z6	X7	Y7	Z7	X8	Y8	Z8	X9	Y9	Z9	X10	Y10	Z10	X11	Y11	Z11	X12	Y12	Z12	X13	Y13	Z13	X14	Y14	Z14	X15	Y15	Z15	X16	Y16	Z16	X17	Y17	Z17	X18	Y18	Z18	X19	Y19	Z19	X20	Y20	Z20	X21	Y21	Z21	X22	Y22	Z22
268	8.937498057498058	1.9257549594171912	0.5266558313423898	0.0301	1.9010214132490117	0.48375426662567056	0.0301	2.053929302485642	0.35907676183646586	0.129	2.2010349209351108	0.26796759543291104	0.023	2.274305348694942	0.23360129051036996	0.2179	2.253436247205345	0.21343128940876055	0.1804	2.220524418354294	0.2591649549439978	-0.0119	1.9607753672317916	0.5620679150365586	0.0301	2.1114044119420035	0.4432631547016689	0.129	2.2060046646874434	0.35771863294723244	0.023	2.2757279924344163	0.29271356101130347	0.2179	2.286761217570564	0.3202212414138244	0.1804	2.2095559739627255	0.34346406874782254	-0.0119	1.6895431581992764	0.7022006030556575	0.0008	1.5825843978962892	0.7909901100193483	0.0655	1.666856062224583	0.7261648341715732	0.1076	1.646442127187926	0.6204125650502545	-0.01275	1.7607881708624955	0.4882636515757947	0.0702	1.8661716647283708	0.39177987302561124	0.1076	1.7581723600600454	0.775298223629695	-0.01275	1.912127827729818	0.7049331508250503	0.0702	2.021218278310062	0.6265378594007478	0.1076
269	8.97084693084693	1.9264361696417158	0.5273602603876861	0.0301	1.901998766055331	0.4830887831170813	0.0301	2.0561833491087427	0.3579359743522351	0.129	2.201232308295722	0.2698857233092852	0.023	2.275713174354308	0.23255397586282392	0.2179	2.253628783688972	0.2127559822919356	0.1804	2.219790210051593	0.2605566868872765	-0.0119	1.9627530503482702	0.5632586408222509	0.0301	2.112777820739169	0.43952667630379383	0.129	2.2240022126421968	0.344003606961152	0.023	2.290014723135305	0.28229341788818446	0.2179	2.3017474122824604	0.3100535081812815	0.1804	2.2327317530359085	0.32537937392572674	-0.0119	1.685388433507652	0.7073302341814922	0.0008	1.580063046674665	0.7955970144155234	0.0655	1.6625172411004026	0.7320429583287347	0.1076	1.6446363339534968	0.6209726425427844	-0.01275	1.7587415586042128	0.4889899524406087	0.0702	1.8650483447057016	0.39202461209765077	0.1076	1.758441401521531	0.7767206597769086	-0.01275	1.9139902281907295	0.7060302288007816	0.0702	2.0249706654231345	0.6314607608762253	0.1076
270	9.004195804195804	1.9298173125847726	0.5265958045735861	0.0301	1.9058467408746773	0.48100233009353427	0.0301	2.060898615975221	0.35535958023919756	0.129	2.2016923587260346	0.2708884986399015	0.023	2.2767903772538904	0.23107400953938392	0.2179	2.253382625731258	0.2124164432521757	0.1804	2.219783243867086	0.2615351308141459	-0.0119	1.9671735731645748	0.5628894084068349	0.0301	2.1178747145806365	0.4353763296716624	0.129	2.2422030840584055	0.32991336778696057	0.023	2.3032938460340553	0.2727649244632544	0.2179	2.315700012656585	0.29973242636903175	0.1804	2.253734061211168	0.30874640613200377	-0.0119	1.6812930393551309	0.7125367256672226	0.0008	1.5787856383947496	0.7975908320754996	0.0655	1.6591096873924807	0.7354935490097277	0.1076	1.6442490514938275	0.6203695398202411	-0.01275	1.7574544205332099	0.4889158599657121	0.0702	1.8651899978666477	0.3928260259659143	0.1076	1.7609337321817795	0.776848805503185	-0.01275	1.9167019038081616	0.7068626255204059	0.0702	2.029636966363054	0.6365785619857938	0.1076
271	9.037544677544677	1.9359003208312309	0.5245302299765454	0.0301	1.9111540246464072	0.4786518409042063	0.0301	2.0667668828173382	0.3522040390888055	0.129	2.2028145564364303	0.27048334463360946	0.023	2.276504389479511	0.22946673673889467	0.2179	2.252435096041678	0.21174390606532761	0.1804	2.220806390462345	0.26265682851973177	-0.0119	1.9733110584407911	0.5618835270340636	0.0301	2.1265358869592856	0.4314397702629782	0.129	2.2581982186185994	0.3188181182446741	0.023	2.3167712339220796	0.26582639813824516	0.2179	2.329608151371962	0.2919606339257704	0.1804	2.270419885123431	0.29612302011541697	-0.0119	1.6819868190813811	0.7142558086013446	0.0008	1.5795503045784254	0.7973549564267948	0.0655	1.6590016196732618	0.7361678772651281	0.1076	1.6460525461503477	0.6181567947807826	-0.01275	1.758508463969162	0.4873143205615394	0.0702	1.8664825694572302	0.39422351939342287	0.1076	1.7654130113738566	0.7760675882133933	-0.01275	1.919372331367781	0.7075551988732097	0.0702	2.036245877682829	0.641556543176781	0.1076
272	9.070893550893551	1.9414099053160379	0.5233386957129876	0.0301	1.916433916411169	0.4774532432140815	0.0301	2.071831344295086	0.3491614925420107	0.129	2.2047091311629052	0.2690240480003394	0.023	2.2750422636597483	0.228595488636751	0.2179	2.2512209123623608	0.21095941180146388	0.1804	2.2229409716025845	0.2625660758837213	-0.0119	1.9791014813300978	0.5618373677277234	0.0301	2.1356543321527512	0.42933551210455295	0.129	2.2705947717974997	0.31191432457349433	0.023	2.327613006951053	0.26169856991649015	0.2179	2.340711001974098	0.28737213460262523	0.1804	2.2827111547553702	0.2887399069644193	-0.0119	1.6863541211456141	0.7134282288529061	0.0008	1.581799389882307	0.7977751740749273	0.0655	1.6610783961158149	0.7377762957947531	0.1076	1.649879966918967	0.6159282560930311	-0.01275	1.761394271641254	0.48485423249045	0.0702	1.8682680996851566	0.3955547919011766	0.1076	1.7701150806888286	0.7752828776739731	-0.01275	1.9217109492859734	0.7081748071537953	0.0702	2.0438235780857936	0.6460060974442194	0.1076
273	9.104242424242424	1.9448994357302438	0.5239990841112756	0.0301	1.921302993956195	0.47770309407420797	0.0301	2.0750369305085967	0.34675945036732625	0.129	2.2066933804254596	0.267804154049343	0.023	2.2735866381041903	0.22858202868914573	0.2179	2.250435127770815	0.2107615443323547	0.1804	2.2260362333552495	0.26070788759963626	-0.0119	1.983679287384281	0.5625864672994798	0.0301	2.1425110761923247	0.4290692591207452	0.129	2.2788229316037723	0.30859587795221166	0.023	2.3334804896253956	0.25961030486311093	0.2179	2.3467763631702483	0.2847540582128896	0.1804	2.291555575988752	0.28543855013176983	-0.0119	1.69060522868002	0.7129463598536415	0.0008	1.5849360661663798	0.7998146918862976	0.0655	1.664383026647359	0.7411153510141333	0.1076	1.654758625380377	0.6151894345796882	-0.01275	1.7646189659557219	0.4827129753847707	0.0702	1.8703083247190382	0.396337576173883	0.1076	1.7741293321628382	0.7749612412454588	-0.01275	1.9246986424264882	0.7087464385589589	0.0702	2.05114646894048	0.650218922537484	0.1076
274	9.137591297591298	1.9487013452898323	0.5241410994247147	0.0301	1.9258425543031485	0.4774216230960014	0.0301	2.077241338703495	0.3450269157246952	0.129	2.2077823899765865	0.2678974689502829	0.023	2.273164007583849	0.22863063818809004	0.2179	2.250512987385449	0.21081285222510104	0.1804	2.2283089412238337	0.25924493663387316	-0.0119	1.9877594199621342	0.562284081525485	0.0301	2.147333499333239	0.42853612490462173	0.129	2.284728325076464	0.30622726271479106	0.023	2.337355157398203	0.25788435262340537	0.2179	2.350747743554767	0.2823597413272384	0.1804	2.299141967158498	0.28276741055904386	-0.0119	1.6957346187490772	0.7122161885462038	0.0008	1.5888960156155605	0.8014501205376056	0.0655	1.670732950163811	0.7415518366296822	0.1076	1.6600299438186434	0.6150681490037913	-0.01275	1.7681228868943804	0.4812571265777253	0.0702	1.8727145992740848	0.3968086752090715	0.1076	1.7792478903589053	0.7748621819384903	-0.01275	1.9297008482506666	0.7093659982037057	0.0702	2.059084132982657	0.654273729809601	0.1076
275	9.17094017094017	1.9545388932826393	0.5213787444979716	0.0301	1.9300631699890296	0.47480904679199165	0.0301	2.0795387764856166	0.3431445403815988	0.129	2.2075247987960527	0.2694198025345557	0.023	2.2736791060934634	0.2281744312209734	0.2179	2.2510378565611164	0.210489278912184	0.1804	2.2279165200469198	0.26058239651669723	-0.0119	1.9921029995415602	0.5599459395997994	0.0301	2.1514425265388524	0.4261942846605908	0.129	2.2911001478804116	0.3020762086751633	0.023	2.343590836280016	0.25383868056623793	0.2179	2.3569034929624437	0.2781685412184844	0.1804	2.3068440764151195	0.27862470558737434	-0.0119	1.7049801869081236	0.7092426332833309	0.0008	1.594135151583206	0.8013573376788743	0.0655	1.6815435824689209	0.7367178000395778	0.1076	1.6656413321790433	0.6140623710954167	-0.01275	1.7727514490272311	0.4800046866779275	0.0702	1.8754748766857723	0.397147761557853	0.1076	1.7871154037104064	0.7749107012304762	-0.01275	1.9374539956297216	0.7099214564470244	0.0702	2.069310636630689	0.6572371734948421	0.1076
276	9.204289044289045	1.9612202518420494	0.5169477181034317	0.0301	1.9346139798286954	0.4710301190988357	0.0301	2.081738105102485	0.3401284049301797	0.129	2.2058019568485108	0.27218590384035835	0.023	2.2743166456354675	0.2275209392799841	0.2179	2.2510183626439937	0.21023080614981518	0.1804	2.224702987900127	0.2654015397444319	-0.0119	1.997248848321356	0.5565089331051426	0.0301	2.1552834111088583	0.42243308292332143	0.129	2.2979563763356134	0.2965483993772839	0.023	2.3519707932037965	0.24636479819009663	0.2179	2.3650082400157726	0.27156984937490214	0.1804	2.313481807906097	0.2740097164532306	-0.0119	1.715843662592195	0.7064376540108858	0.0008	1.6017658450207044	0.8004577642971574	0.0655	1.6939223691031526	0.7316822040249306	0.1076	1.6710641532610182	0.6126061153094455	-0.01275	1.778478697246073	0.47856294830456364	0.0702	1.8786508614932915	0.3972486242068706	0.1076	1.7958214913443256	0.7753602267584805	-0.01275	1.947102666163879	0.7102101680211004	0.0702	2.0808251318099775	0.6585095808327964	0.1076
277	9.237637917637917	1.9670483429174943	0.5139457437512341	0.0301	1.9398842080881127	0.46852862163317827	0.0301	2.083575177636462	0.33607110570436166	0.129	2.20238598343391	0.27543131293436135	0.023	2.2748035802747615	0.22715632630359947	0.2179	2.2504060555688365	0.2105795120035026	0.1804	2.2188810247832103	0.27227082930624263	-0.0119	2.003306956926167	0.5537478200797916	0.0301	2.1589100878886645	0.4189520141880394	0.129	2.3034167000002306	0.2917617843335287	0.023	2.359106812825059	0.2385161029807811	0.2179	2.37164234182934	0.265009628983619	0.1804	2.3179596546341887	0.27023882383942777	-0.0119	1.722938550672551	0.7073989561291325	0.0008	1.6119501998354917	0.7996634144874643	0.0655	1.7036242617741564	0.7312747633039416	0.1076	1.6752551667138373	0.6121854586301999	-0.01275	1.7841672464111702	0.47754318194563383	0.0702	1.88240393691378	0.39710246356300255	0.1076	1.8022167843727368	0.7766390322709298	-0.01275	1.9560127760913861	0.7106250041650748	0.0702	2.0905609507798313	0.6588304663532519	0.1076
